# xmcd
#
# Track frame offsets:
#	150
#	19032
#	38750
#	58315
#	77937
#	95182
#	121367
#	139400
#	158195
#	177802
#	195057
#	215605
#
# Disc length: 3172 seconds
#
# Revision: 1
# Processed by: cddbd v1.5.2PL0 Copyright (c) Steve Scherf et al.
# Submitted via: EasyCDDAExtractor 15.3.0.1
#
DISCID=a70c620c
DTITLE=Luis Enrique - Genesis
DYEAR=1996
DGENRE=Latin
TTITLE0=Por Tu Amor
TTITLE1=Sabor Sabor
TTITLE2=Como Voy A Olvidarte
TTITLE3=Si Hay Amor
TTITLE4=Regazo
TTITLE5=Mala Suerte
TTITLE6=Juntos
TTITLE7=No Queda Nada
TTITLE8=Quiso Ser Libre
TTITLE9=Donde Esta El Dinero
TTITLE10=Mientras Dormias
TTITLE11=Al Son Del Amor
EXTD=YEAR: 1996
EXTT0=
EXTT1=
EXTT2=
EXTT3=
EXTT4=
EXTT5=
EXTT6=
EXTT7=
EXTT8=
EXTT9=
EXTT10=
EXTT11=
PLAYORDER=
